<?xml version="1.0" encoding="UTF-8"?>
<svg id="Layer_1" data-name="Layer 1" xmlns="http://www.w3.org/2000/svg" viewBox="0 0 2000 2000">
  <defs>
    <style>
      .cls-1 {
        opacity: .4;
      }
    </style>
  </defs>
  <path d="M544.72,1211.04h61.07c43.98,0,74.13,26.5,74.13,67.22s-30.15,67.22-74.13,67.22h-61.07v-134.44ZM604.26,1319.94c26.7,0,44.17-15.94,44.17-41.68s-17.48-41.68-44.17-41.68h-28.42v83.35h28.42Z"/>
  <path d="M760.98,1211.04h31.11v134.44h-31.11v-134.44Z"/>
  <path d="M871.03,1332.23l10.56-23.43c11.33,8.26,28.23,14.02,44.37,14.02,18.44,0,25.93-6.15,25.93-14.4,0-25.16-78.17-7.87-78.17-57.81,0-22.86,18.44-41.87,56.66-41.87,16.9,0,34.19,4.03,46.67,11.91l-9.6,23.62c-12.48-7.11-25.35-10.56-37.26-10.56-18.44,0-25.54,6.91-25.54,15.36,0,24.78,78.17,7.68,78.17,57.04,0,22.47-18.63,41.68-57.04,41.68-21.32,0-42.83-6.34-54.74-15.56Z"/>
  <path d="M1087.67,1236.39h-43.02v-25.35h117.16v25.35h-43.02v109.09h-31.11v-109.09Z"/>
  <path d="M1236.14,1211.04h31.11v134.44h-31.11v-134.44Z"/>
  <path d="M1356.75,1211.04h31.11v109.09h67.41v25.35h-98.53v-134.44Z"/>
  <path d="M659.13,1392.24h-8.01v-4.72h21.8v4.72h-8.01v20.3h-5.79v-20.3Z"/>
  <path d="M709.71,1387.52v25.02h-5.79v-10.26h-11.37v10.26h-5.79v-25.02h5.79v9.86h11.37v-9.86h5.79Z"/>
  <path d="M745.74,1407.89v4.65h-19.37v-25.02h18.91v4.65h-13.15v5.43h11.62v4.5h-11.62v5.79h13.62Z"/>
  <path d="M781.91,1387.52h11.37c8.19,0,13.8,4.93,13.8,12.51s-5.61,12.51-13.8,12.51h-11.37v-25.02ZM792.99,1407.79c4.97,0,8.22-2.97,8.22-7.76s-3.25-7.76-8.22-7.76h-5.29v15.51h5.29Z"/>
  <path d="M822.16,1387.52h5.79v25.02h-5.79v-25.02Z"/>
  <path d="M842.64,1410.07l1.97-4.36c2.11,1.54,5.25,2.61,8.26,2.61,3.43,0,4.83-1.14,4.83-2.68,0-4.68-14.55-1.47-14.55-10.76,0-4.25,3.43-7.79,10.54-7.79,3.15,0,6.36.75,8.69,2.22l-1.79,4.4c-2.32-1.32-4.72-1.97-6.93-1.97-3.43,0-4.75,1.29-4.75,2.86,0,4.61,14.55,1.43,14.55,10.62,0,4.18-3.47,7.76-10.62,7.76-3.97,0-7.97-1.18-10.19-2.89Z"/>
  <path d="M882.96,1392.24h-8.01v-4.72h21.8v4.72h-8.01v20.3h-5.79v-20.3Z"/>
  <path d="M910.59,1387.52h5.79v25.02h-5.79v-25.02Z"/>
  <path d="M933.03,1387.52h5.79v20.3h12.55v4.72h-18.34v-25.02Z"/>
  <path d="M965.35,1387.52h5.79v20.3h12.55v4.72h-18.34v-25.02Z"/>
  <path d="M1017.03,1407.89v4.65h-19.37v-25.02h18.91v4.65h-13.15v5.43h11.62v4.5h-11.62v5.79h13.62Z"/>
  <path d="M1048.31,1412.54l-4.83-6.97h-5.33v6.97h-5.79v-25.02h10.83c6.68,0,10.87,3.47,10.87,9.08,0,3.75-1.89,6.5-5.15,7.9l5.61,8.04h-6.22ZM1042.87,1392.24h-4.72v8.72h4.72c3.54,0,5.33-1.64,5.33-4.36s-1.79-4.36-5.33-4.36Z"/>
  <path d="M1067.4,1410.07l1.97-4.36c2.11,1.54,5.25,2.61,8.26,2.61,3.43,0,4.83-1.14,4.83-2.68,0-4.68-14.55-1.47-14.55-10.76,0-4.25,3.43-7.79,10.54-7.79,3.15,0,6.36.75,8.69,2.22l-1.79,4.4c-2.32-1.32-4.72-1.97-6.93-1.97-3.43,0-4.75,1.29-4.75,2.86,0,4.61,14.55,1.43,14.55,10.62,0,4.18-3.47,7.76-10.62,7.76-3.97,0-7.97-1.18-10.19-2.89Z"/>
  <path d="M1128.91,1392.24h-8.01v-4.72h21.8v4.72h-8.01v20.3h-5.79v-20.3Z"/>
  <path d="M1154.61,1400.03c0-7.43,5.79-12.94,13.69-12.94s13.69,5.47,13.69,12.94-5.83,12.94-13.69,12.94-13.69-5.5-13.69-12.94ZM1176.13,1400.03c0-4.75-3.36-8.01-7.83-8.01s-7.83,3.25-7.83,8.01,3.36,8.01,7.83,8.01,7.83-3.25,7.83-8.01Z"/>
  <path d="M1195.5,1400.03c0-7.43,5.79-12.94,13.69-12.94s13.69,5.47,13.69,12.94-5.83,12.94-13.69,12.94-13.69-5.5-13.69-12.94ZM1217.02,1400.03c0-4.75-3.36-8.01-7.83-8.01s-7.83,3.25-7.83,8.01,3.36,8.01,7.83,8.01,7.83-3.25,7.83-8.01Z"/>
  <path d="M1237.97,1387.52h5.79v20.3h12.55v4.72h-18.34v-25.02Z"/>
  <path d="M1279.39,1402.71l-3.36,3.5v6.33h-5.75v-25.02h5.75v11.69l11.08-11.69h6.43l-10.36,11.15,10.97,13.87h-6.76l-8.01-9.83Z"/>
  <path d="M1307.45,1387.52h5.79v25.02h-5.79v-25.02Z"/>
  <path d="M1335.08,1392.24h-8.01v-4.72h21.8v4.72h-8.01v20.3h-5.79v-20.3Z"/>
  <g>
    <g>
      <path d="M777.92,1002.4h-12.27v-147.82c0-17.84,14.51-32.35,32.35-32.35h69.98c17.84,0,32.35,14.51,32.35,32.35v20.81h-12.27v-20.81c0-11.07-9.01-20.08-20.08-20.08h-69.98c-11.07,0-20.08,9.01-20.08,20.08v147.82Z"/>
      <rect x="854.16" y="816.21" width="12.27" height="25.07"/>
    </g>
    <rect x="758.66" y="902.49" width="26.26" height="12.27"/>
  </g>
  <g>
    <g>
      <path d="M1234.33,1002.4h-12.27v-147.82c0-11.07-9.01-20.08-20.08-20.08h-69.98c-11.07,0-20.08,9.01-20.08,20.08v20.81h-12.27v-20.81c0-17.84,14.51-32.35,32.35-32.35h69.98c17.84,0,32.35,14.51,32.35,32.35v147.82Z"/>
      <rect x="1133.55" y="815.03" width="12.27" height="26.26"/>
    </g>
    <rect x="1215.07" y="902.49" width="26.26" height="12.27"/>
  </g>
  <rect x="716.39" y="996.28" width="567.22" height="12.27"/>
  <rect x="716.39" y="1043.83" width="567.22" height="12.27"/>
  <rect x="716.39" y="1091.39" width="567.22" height="12.27"/>
  <rect x="956.91" y="642.41" width="83.96" height="12.27"/>
  <path d="M1127.53,920.06v88.49h-255.07v-88.49c0-.58.01-1.15.01-1.73.08-3.61.42-7.19.96-10.69.09-.55.18-1.09.3-1.63,1.17-6.51,3.2-12.85,6-18.82,1.84-3.98,4.03-7.82,6.54-11.42.58-.83,1.17-1.66,1.79-2.47.44-.59.89-1.18,1.35-1.76,3.3-4.14,6.97-7.9,10.93-11.22.47-.41.94-.79,1.42-1.17,13.66-10.96,30.68-17.02,48.62-17.02,6.8,0,13.19-2.64,18-7.44,4.79-4.81,7.44-11.2,7.44-17.99v-168.15h12.27v168.15c0,10.05-3.91,19.51-11.03,26.66-7.15,7.12-16.62,11.05-26.68,11.05s-19.74,2.26-28.51,6.5h-.02c-8.33,4.01-15.8,9.81-21.9,17.13-.33.38-.65.77-.95,1.16-2.3,2.87-4.35,5.94-6.09,9.15-2.89,5.2-5.04,10.76-6.41,16.55v.02c-.37,1.55-.68,3.11-.93,4.68-.27,1.7-.48,3.42-.61,5.16-.12,1.45-.19,2.92-.2,4.37-.02.32-.02.62-.02.93v76.21h230.53v-76.21c0-1.78-.08-3.55-.22-5.31-.1-1.32-.24-2.61-.43-3.89l-.2-1.28c-1.75-11.04-6.4-21.56-13.44-30.4-1.55-1.95-3.21-3.83-4.97-5.58-12.42-12.4-28.9-19.21-46.44-19.21h-.46c-9.81,0-19.06-3.84-26.08-10.82-7.2-7.18-11.16-16.72-11.16-26.89v-168.15h12.27v168.15c0,6.88,2.69,13.34,7.55,18.18,4.7,4.68,10.87,7.25,17.42,7.25.15.01.31,0,.46,0,18.52,0,36.05,6.41,50.07,18.21,1.73,1.45,3.42,2.99,5.04,4.61,2.08,2.08,4.08,4.31,5.9,6.62.45.56.89,1.13,1.33,1.71,6.54,8.69,11.19,18.69,13.62,29.22h.16l.85,5.15c.65,4.04.98,8.22.98,12.42Z"/>
  <g>
    <path d="M1233.75,587.03h-467.49c-30.88,0-55.99,25.12-55.99,56v467.49c0,30.88,25.11,55.99,55.99,55.99h467.49c30.88,0,55.99-25.11,55.99-55.99v-467.49c0-30.88-25.11-56-55.99-56ZM1277.47,1110.52c0,24.1-19.61,43.72-43.72,43.72h-467.49c-24.11,0-43.72-19.62-43.72-43.72v-467.49c0-24.11,19.61-43.72,43.72-43.72h467.49c24.11,0,43.72,19.61,43.72,43.72v467.49Z"/>
    <rect class="cls-1" x="884.73" y="966.92" width="230.53" height="29.35"/>
    <path class="cls-1" d="M1115.05,914.76h-230.1c.13-1.74.34-3.46.61-5.16.25-1.57.56-3.13.93-4.68v-.02c1.37-5.79,3.52-11.36,6.41-16.55,1.74-3.21,3.79-6.28,6.09-9.15.31-.39.62-.78.95-1.16,6.11-7.32,13.57-13.12,21.9-17.13h.02c8.77-4.24,18.45-6.5,28.51-6.5s19.53-3.92,26.68-11.05c7.11-7.15,11.03-16.61,11.03-26.66v-162.02h23.79v162.02c0,10.17,3.96,19.71,11.16,26.89,7.02,6.98,16.27,10.82,26.08,10.82h.46c17.54,0,34.02,6.82,46.44,19.21,1.75,1.75,3.42,3.63,4.97,5.58,7.04,8.83,11.68,19.36,13.44,30.4l.2,1.28c.19,1.28.33,2.58.43,3.89Z"/>
  </g>
  <rect x="878.08" y="914.76" width="245.66" height="12.28"/>
  <rect x="878.08" y="954.64" width="245.66" height="12.28"/>
</svg>